HIERARCHY
ROOT Hips
{
	OFFSET 0.000000 0.000000 0.000000 
	CHANNELS 6 Xposition Yposition Zposition Yrotation Zrotation Xrotation 
	JOINT Lumbar
	{
		OFFSET 0.000000 0.000000 0.000000 
		CHANNELS 3 Zrotation Xrotation Yrotation
		JOINT Neck
		{
			OFFSET 0.000000 0.445665 0.000000 
			CHANNELS 3 Zrotation Xrotation Yrotation
			End Site
			{
				OFFSET 0.000000 0.227535 0.000000 
			}
		}
		JOINT RightShoulder
		{
			OFFSET 0.019635 0.377685 0.194865 
			CHANNELS 3 Zrotation Xrotation Yrotation
			JOINT RightElbow
			{
				OFFSET 0.000000 -0.243375 0.000000 
				CHANNELS 2 Zrotation Yrotation
				JOINT RightWrist
				{
					OFFSET 0.000000 -0.264825 0.000000 
					CHANNELS 2 Zrotation Xrotation
					End Site
					{
						OFFSET 0.006600 -0.176220 0.000990 
					}
				}
			}
		}
		JOINT LeftShoulder
		{
			OFFSET 0.019635 0.377685 -0.194865 
			CHANNELS 3 Zrotation Xrotation Yrotation
			JOINT LeftElbow
			{
				OFFSET 0.000000 -0.243375 0.000000 
				CHANNELS 2 Zrotation Yrotation
				JOINT LeftWrist
				{
					OFFSET 0.000000 -0.264825 0.000000 
					CHANNELS 2 Zrotation Xrotation
					End Site
					{
						OFFSET 0.006600 -0.176220 -0.000990 
					}
				}
			}
		}
	}
	JOINT RightHip
	{
		OFFSET 0.052140 -0.069960 0.075570 
		CHANNELS 3 Zrotation Xrotation Yrotation
		JOINT RightKnee
		{
			OFFSET 0.000000 -0.402270 0.000000 
			CHANNELS 1 Zrotation
			JOINT RightAnkle
			{
				OFFSET 0.000000 -0.404085 0.000000 
				CHANNELS 3 Zrotation Xrotation Yrotation
				End Site
				{
					OFFSET 0.204105 -0.089430 0.008415 
				}
			}
		}
	}
	JOINT LeftHip
	{
		OFFSET 0.052140 -0.069960 -0.075570 
		CHANNELS 3 Zrotation Xrotation Yrotation
		JOINT LeftKnee
		{
			OFFSET 0.000000 -0.402270 0.000000 
			CHANNELS 1 Zrotation
			JOINT LeftAnkle
			{
				OFFSET 0.000000 -0.404085 0.000000 
				CHANNELS 3 Zrotation Xrotation Yrotation
				End Site
				{
					OFFSET 0.204105 -0.089430 -0.008415 
				}
			}
		}
	}
}
MOTION
Frames: 19
Frame Time: 0.02
2.14269 0.4702 -1.99075 361.65156 -20.66442 -4.03353 41.28133 -1.62075 -5.44552 -11.48087 14.1053 -2.11994 -10.97575 -41.49588 -9.31434 49.74951 82.83415 1.46718 -1.72345 -32.23908 15.15793 1.61653 36.57193 -87.83045 5.43463 0.08248 11.6406 -17.75278 22.44966 0.38075 -50.0036 -28.51133 -19.55558 8.96562 -8.14214 25.90105 0.49045 -1.40714 -4.53217 0.12548
2.13818 0.46946 -1.99177 361.269 -20.44783 -4.02999 40.58545 -1.51813 -5.35065 -11.59846 14.31626 -2.11994 -13.69358 -37.66684 -7.24132 48.2936 84.18194 2.16484 -1.19008 -32.5473 15.35753 1.16106 36.97962 -87.08791 5.24806 0.40651 11.91635 -17.90139 22.9837 0.37755 -50.00725 -28.23897 -19.55702 9.02784 -8.30328 26.17954 0.49179 -1.36809 -4.42232 0.14572
2.13327 0.46869 -1.99269 360.86019 -20.22389 -4.06191 39.82514 -1.40329 -5.2513 -11.68386 14.58211 -2.11994 -15.56665 -33.82566 -4.17993 45.65879 85.95077 2.90827 -0.51621 -32.75414 15.67056 0.5748 37.55667 -86.09564 4.93655 0.81701 12.23184 -18.00974 23.57122 0.37431 -50.00839 -27.93786 -19.55733 9.10959 -8.42416 26.443 0.49347 -1.32429 -4.24269 0.18533
2.12853 0.46795 -1.99367 360.45266 -20.0289 -4.08264 39.11133 -1.29288 -5.16642 -11.78642 14.82115 -2.11994 -17.84064 -30.00059 -1.62419 43.61028 87.61183 3.65665 0.09726 -33.01005 15.92769 0.07901 38.07458 -85.31932 4.72715 1.15757 12.5609 -18.13575 24.16652 0.37148 -50.00962 -27.64823 -19.55741 9.21424 -8.55884 26.72029 0.49502 -1.27467 -4.08887 0.21498
2.12384 0.46716 -1.99462 360.09003 -19.72538 -4.08221 38.32291 -1.18629 -5.02355 -11.8764 15.07124 -2.11994 -20.00397 -26.10206 1.23896 41.326 88.94773 4.31357 0.7066 -33.24835 16.20489 -0.54975 38.52343 -84.13122 4.33923 1.62302 12.7579 -18.26712 24.63524 0.36703 -50.01999 -27.36163 -19.56233 9.18533 -8.71452 26.96971 0.49648 -1.26141 -3.96019 0.24812
2.11895 0.46646 -1.9956 359.6249 -19.64517 -4.13373 37.67428 -1.06958 -5.00335 -11.98687 15.30791 -2.11994 -22.20674 -22.37119 3.66816 39.25977 91.0286 5.15771 1.35163 -33.50073 16.46725 -0.93371 39.15055 -83.72048 4.28221 1.8537 13.23857 -18.37672 25.37286 0.36592 -50.00484 -27.0628 -19.55476 9.43834 -8.81677 27.2764 0.49821 -1.17015 -3.76376 0.27957
2.11363 0.46602 -1.99668 358.91688 -20.1975 -4.32822 37.44052 -0.92321 -5.31239 -12.14623 15.52109 -2.11994 -24.78968 -19.02915 4.68002 38.10622 95.33686 6.60283 2.08908 -33.82046 16.65238 -0.58689 40.26796 -85.68107 5.24901 1.37586 14.49459 -18.4363 26.88798 0.3742 -49.97282 -26.74417 -19.53193 10.47292 -8.77355 27.70259 0.50064 -0.86647 -3.38144 0.29611
2.10813 0.46566 -1.99779 358.10062 -20.9721 -4.57216 37.34785 -0.76811 -5.74747 -12.32989 15.71348 -2.11994 -27.43487 -15.87548 5.20714 37.21332 100.33275 8.21734 2.8513 -34.15675 16.81991 0.007 41.5492 -88.40285 6.53842 0.66588 16.03295 -18.47491 28.66094 0.38578 -49.90713 -26.4141 -19.49349 11.7886 -8.67912 28.19412 0.50334 -0.48405 -2.93595 0.3114
2.10271 0.46525 -1.99888 357.31246 -21.63634 -4.78855 37.18215 -0.6201 -6.13269 -12.51327 15.89794 -2.11994 -30.01689 -12.68695 5.93185 36.18855 104.82924 9.68864 3.58243 -34.48538 17.00065 0.47352 42.73182 -90.66588 7.626 0.0883 17.44235 -18.52267 30.28543 0.39576 -49.81984 -26.08463 -19.44921 12.97105 -8.61273 28.68254 0.5059 -0.13574 -2.52968 0.33103
2.09726 0.46489 -1.99998 356.61302 -22.3411 -5.02856 37.05089 -0.4582 -6.48714 -12.65184 16.1588 -2.11994 -32.71982 -9.27612 6.78864 35.17395 110.11355 11.43488 4.40195 -34.8159 17.16325 0.99955 44.03082 -93.38985 8.93863 -0.59863 18.86113 -18.5709 32.04954 0.40625 -49.88087 -25.7712 -19.45764 14.17933 -8.52446 29.05788 0.50856 0.20685 -2.07707 0.3355
2.09185 0.46445 -2.00108 355.70263 -23.01264 -5.22943 36.88333 -0.32366 -6.93466 -12.88774 16.25349 -2.11994 -35.19194 -6.38238 7.24146 34.22163 113.93481 12.6561 5.04189 -35.14152 17.35813 1.46148 45.11358 -95.34625 9.86551 -1.11559 20.32032 -18.61338 33.57641 0.41634 -49.63427 -25.4249 -19.35493 15.39777 -8.47063 29.68495 0.51107 0.57846 -1.70633 0.37088
2.08646 0.46374 -2.00219 354.2434 -23.55301 -5.32027 36.5733 -0.26381 -7.61718 -13.40497 15.90613 -2.11994 -37.05668 -4.79432 6.69403 33.33141 113.36947 12.31464 5.17433 -35.50302 17.64399 1.6933 45.64855 -94.92294 9.60582 -1.09355 21.87773 -18.64815 34.42182 0.42539 -48.46314 -24.95375 -18.92197 16.59744 -8.52034 30.98482 0.51314 1.02364 -1.5798 0.49397
2.08112 0.46295 -2.00329 352.57465 -24.04969 -5.36774 36.22435 -0.23239 -8.38713 -14.01575 15.39015 -2.11994 -38.68123 -3.73466 5.75174 32.50901 111.33686 11.4509 5.12549 -35.8491 17.96251 1.85268 45.94302 -93.71484 8.95414 -0.89533 23.45501 -18.67777 34.99729 0.43363 -46.99664 -24.4481 -18.37787 17.79346 -8.60753 32.53551 0.51505 1.49255 -1.53599 0.64844
2.07582 0.4622 -2.00437 350.99698 -24.55639 -5.42847 35.89775 -0.18999 -9.11164 -14.57207 14.94291 -2.11994 -40.39265 -2.48291 4.98786 31.69244 110.09381 10.87437 5.16255 -36.16825 18.26748 2.03946 46.2877 -92.91715 8.5119 -0.78657 24.98702 -18.70758 35.69119 0.44183 -45.72316 -23.99386 -17.90871 18.97665 -8.68036 33.97746 0.51701 1.94272 -1.45507 0.78622
2.07027 0.46143 -2.00557 349.43204 -25.11167 -5.51898 35.55351 -0.13918 -9.86574 -15.18079 14.52674 -2.11994 -42.20672 -1.03417 4.21409 30.73143 108.36639 10.09807 5.18573 -36.63299 18.56767 2.2528 46.88635 -91.92337 7.95359 -0.64599 26.68373 -18.7445 36.47421 0.45238 -44.21057 -23.42475 -17.35601 20.23077 -8.73977 35.40566 0.5191 2.43072 -1.37686 0.93135
2.06526 0.46069 -2.0065 347.79343 -25.55335 -5.53549 35.23851 -0.11264 -10.57596 -15.70083 14.008 -2.11994 -43.74054 -0.11965 3.37085 30.08167 107.27837 9.60563 5.19443 -36.78838 18.88426 2.39703 46.89842 -91.13615 7.53365 -0.52709 28.03615 -18.76717 36.92616 0.45717 -43.11345 -23.04123 -16.92585 21.33271 -8.83712 36.91353 0.52087 2.84264 -1.30471 1.07226
2.06164 0.46008 -2.00667 345.99314 -25.68326 -5.36646 34.98233 -0.14708 -11.15412 -15.96523 13.23114 -2.11994 -44.63385 -0.54308 2.45564 30.2987 108.40806 10.07377 5.20588 -36.11309 19.25167 2.30851 45.33704 -91.15564 7.64276 -0.50755 28.45061 -18.73899 37.22124 0.45163 -43.34925 -23.58621 -17.08719 22.01241 -9.02669 38.64569 0.52186 3.05428 -1.30482 1.16288
2.05858 0.4595 -2.00655 344.12843 -25.70059 -5.12257 34.76191 -0.20481 -11.68198 -16.13476 12.36037 -2.11994 -45.23898 -1.48622 1.48309 30.82238 110.20683 10.8346 5.20843 -35.12376 19.63241 2.16154 43.19775 -91.39779 7.89369 -0.5152 28.51304 -18.69918 37.08013 0.43944 -43.99446 -24.25493 -17.34024 22.53781 -9.254 40.43684 0.52252 3.18512 -1.29464 1.25402
2.05533 0.45891 -2.00655 342.29977 -25.7745 -4.90742 34.54527 -0.2514 -12.22606 -16.33969 11.5428 -2.11994 -45.92729 -2.19593 0.52267 31.18702 111.63997 11.42974 5.21694 -34.26448 19.99769 2.08086 41.32705 -91.50539 8.04436 -0.51184 28.72387 -18.67309 36.66118 0.42656 -44.37536 -24.58476 -17.39477 23.13485 -9.46655 42.15748 0.52329 3.34243 -1.23939 1.36517
